<svg width="43" height="27" viewBox="0 0 43 27" fill="none" xmlns="http://www.w3.org/2000/svg">
<g clip-path="url(#clip0_6026_6052)">
<path d="M2.26631 0.226074H40.7988C42.0149 0.226074 43.0007 1.18508 43.0007 2.36802V24.8584C43.0007 26.0414 42.0149 27.0004 40.7988 27.0004H2.26631C1.05028 27.0004 0.0644531 26.0414 0.0644531 24.8584V2.36802C0.0644531 1.18508 1.05028 0.226074 2.26631 0.226074Z" fill="#2557D6"/>
<path d="M0.0784002 12.8463H2.13939L2.6041 11.8016H3.64447L4.10797 12.8463H8.16313V12.0476L8.52511 12.8498H10.6303L10.9922 12.0358V12.8464H21.0701L21.0655 11.1314H21.2604C21.3969 11.1359 21.4368 11.1476 21.4368 11.3577V12.8464H26.6491V12.4472C27.0696 12.6571 27.7235 12.8464 28.5839 12.8464H30.7767L31.246 11.8016H32.2864L32.7453 12.8464H36.9709V11.854L37.6109 12.8464H40.9971V6.28613H37.6458V7.06087L37.1767 6.28613H33.7379V7.06087L33.307 6.28613H28.6622C27.8848 6.28613 27.2013 6.38729 26.6492 6.66917V6.28613H23.4439V6.66917C23.0926 6.37861 22.6139 6.28613 22.0815 6.28613H10.3709L9.5852 7.98047L8.77827 6.28613H5.08988V7.06087L4.68463 6.28613H1.539L0.078125 9.40513V12.8462H0.0782901L0.0784002 12.8463ZM13.0881 11.9001H11.8515L11.8469 8.21629L10.0978 11.9001H9.03875L7.28508 8.21303V11.9001H4.83166L4.36817 10.8509H1.85657L1.3884 11.9001H0.0782351L2.23831 7.19651H4.03057L6.0821 11.6498V7.19651H8.05089L9.62951 10.3873L11.0797 7.19651H13.088L13.0881 11.9001ZM3.95587 9.87475L3.13029 7.99963L2.30927 9.87475H3.95587ZM18.0092 11.9H13.9797V7.19646H18.0092V8.17592H15.186V9.02375H17.9416V9.9879H15.1859V10.9272H18.0092L18.0092 11.9ZM23.6878 8.46326C23.6878 9.21315 23.1508 9.60063 22.838 9.71694C23.1019 9.81054 23.3274 9.97601 23.4347 10.113C23.605 10.347 23.6344 10.5559 23.6344 10.976V11.9H22.4176L22.4131 11.3069C22.4131 11.0238 22.4421 10.6168 22.2227 10.3905C22.0465 10.2251 21.7778 10.1892 21.3435 10.1892H20.0486V11.9001H18.8423V7.19646H21.6167C22.2332 7.19646 22.6874 7.21161 23.0774 7.42174C23.459 7.63186 23.6878 7.93859 23.6878 8.46326ZM22.1631 9.16164C21.9972 9.25546 21.8013 9.25856 21.5663 9.25856H20.101V8.21383H21.5863C21.7964 8.21383 22.0158 8.22261 22.1584 8.29865C22.3148 8.36719 22.4116 8.51301 22.4116 8.71446C22.4116 8.92008 22.3195 9.08549 22.1631 9.16164ZM25.6224 11.9H24.3917V7.19646H25.6224V11.9ZM39.9103 11.9H38.2009L35.9146 8.36971V11.9H33.458L32.9886 10.8509H30.4828L30.0275 11.9H28.6157C28.0295 11.9 27.287 11.7792 26.8667 11.3798C26.4428 10.9804 26.2222 10.4395 26.2222 9.58414C26.2222 8.88656 26.3541 8.24885 26.8724 7.7449C27.2624 7.36953 27.8732 7.19646 28.7044 7.19646H29.8722V8.2043H28.7288C28.2886 8.2043 28.04 8.26534 27.8006 8.48291C27.595 8.68099 27.4539 9.05535 27.4539 9.54837C27.4539 10.0523 27.5613 10.4156 27.7855 10.653C27.9712 10.8391 28.3088 10.8955 28.6262 10.8955H29.1679L30.868 7.19662H32.6754L34.7178 11.6455V7.19667H36.5544L38.6748 10.4725V7.19667H39.9103V11.9ZM32.5781 9.8748L31.7433 7.99969L30.9132 9.8748H32.5781ZM42.9841 19.4107C42.6911 19.8101 42.1202 20.0125 41.3472 20.0125H39.0177V19.0037H41.3378C41.5679 19.0037 41.7289 18.9754 41.8259 18.8872C41.9176 18.8083 41.9693 18.6969 41.9685 18.5804C41.9685 18.4433 41.91 18.3345 41.8212 18.2692C41.7337 18.1974 41.6063 18.1648 41.3961 18.1648C40.2636 18.1289 38.8505 18.1974 38.8505 16.7086C38.8505 16.0263 39.3153 15.308 40.5811 15.308H42.9839V14.372H40.7514C40.0777 14.372 39.5883 14.5225 39.2417 14.7562V14.372H35.9397C35.4116 14.372 34.7918 14.494 34.4987 14.7562V14.372H28.6021V14.7562C28.1329 14.4407 27.3411 14.372 26.9755 14.372H23.0862V14.7562C22.7149 14.4211 21.8893 14.372 21.386 14.372H17.0331L16.0371 15.3768L15.1041 14.372H8.60146V20.9365H14.9813L16.0077 19.9158L16.9746 20.9365L20.9073 20.9398V19.3955H21.2937C21.8155 19.403 22.431 19.3833 22.9739 19.1646V20.9363H26.2177V19.2253H26.3741C26.5739 19.2253 26.5935 19.233 26.5935 19.4189V20.9361H36.4474C37.0729 20.9361 37.7269 20.7869 38.0891 20.516V20.9361H41.2146C41.865 20.9361 42.5002 20.8511 42.9835 20.6336L42.9836 19.4105L42.9841 19.4107ZM23.4459 16.8857C23.4459 18.1926 22.3997 18.4624 21.3454 18.4624H19.8402V20.0404H17.4958L16.0104 18.4829L14.4668 20.0404H9.68863V15.3357H14.5402L16.0243 16.8778L17.5587 15.3357H21.4131C22.3703 15.3357 23.4459 15.5827 23.4459 16.8857ZM13.8557 19.0508H10.8899V18.1148H13.5382V17.1549H10.8899V16.2995H13.9141L15.2335 17.6706L13.8557 19.0508ZM18.6343 19.5895L16.7823 17.6731L18.6343 15.8176V19.5895ZM21.3732 17.4976H19.8144V16.2995H21.3872C21.8227 16.2995 22.1251 16.465 22.1251 16.8763C22.1251 17.2833 21.8367 17.4976 21.3732 17.4976ZM29.5399 15.3357H33.5659V16.3087H30.7412V17.164H33.4969V18.1239H30.7412V19.0599L33.5659 19.0642V20.0404H29.5398L29.5399 15.3357ZM27.9921 17.854C28.2606 17.9464 28.4801 18.1119 28.5829 18.2489C28.7533 18.4787 28.7779 18.6931 28.7828 19.1077V20.0404H27.5717V19.4518C27.5717 19.1688 27.6009 18.7497 27.3767 18.5309C27.2005 18.3624 26.9318 18.3221 26.4918 18.3221H25.2026V20.0405H23.9905V15.3357H26.7755C27.3861 15.3357 27.8309 15.3609 28.2268 15.5578C28.6075 15.7722 28.847 16.0658 28.847 16.6025C28.8469 17.3534 28.3095 17.7366 27.9921 17.854ZM27.3103 17.2593C27.1489 17.3485 26.9494 17.3562 26.7148 17.3562H25.2494V16.2996H26.7346C26.9494 16.2996 27.1644 16.3039 27.3103 16.3846C27.4667 16.4608 27.5601 16.6066 27.5601 16.8078C27.5601 17.009 27.4666 17.1712 27.3103 17.2593ZM38.1996 17.559C38.4347 17.7854 38.5604 18.0715 38.5604 18.5557C38.5604 19.5677 37.8821 20.0402 36.6654 20.0402H34.316V19.0313H36.6561C36.8849 19.0313 37.0471 19.0032 37.1487 18.9149C37.2317 18.8422 37.2912 18.7364 37.2912 18.6081C37.2912 18.471 37.2268 18.3622 37.144 18.2969C37.0518 18.2252 36.9246 18.1926 36.7145 18.1926C35.5864 18.1567 34.1737 18.2252 34.1737 16.7365C34.1737 16.054 34.6336 15.3357 35.8983 15.3357H38.3166V16.3371H36.1038C35.8845 16.3371 35.7419 16.3449 35.6206 16.4221C35.4885 16.4982 35.4395 16.6113 35.4395 16.7605C35.4395 16.9379 35.5516 17.0587 35.7034 17.111C35.8306 17.1522 35.9674 17.1643 36.1727 17.1643L36.8221 17.1807C37.4769 17.1954 37.9264 17.301 38.1996 17.559ZM42.9862 16.2995H40.7877C40.5683 16.2995 40.4223 16.3072 40.2996 16.3845C40.1724 16.4607 40.1234 16.5737 40.1234 16.723C40.1234 16.9005 40.2308 17.0212 40.3871 17.0734C40.5144 17.1147 40.6511 17.1268 40.8519 17.1268L41.5058 17.1431C42.1654 17.1583 42.6057 17.264 42.8742 17.5218C42.9233 17.5576 42.9525 17.5979 42.9861 17.6382V16.2995H42.9862Z" fill="white"/>
</g>
<defs>
<clipPath id="clip0_6026_6052">
<rect width="42.9362" height="26.7743" fill="white" transform="translate(0.0644531 0.225586)"/>
</clipPath>
</defs>
</svg>
