<svg width="43" height="27" viewBox="0 0 43 27" fill="none" xmlns="http://www.w3.org/2000/svg">
<g clip-path="url(#clip0_6026_6035)">
<path fill-rule="evenodd" clip-rule="evenodd" d="M3.09157 0C1.42008 0 0.0644531 1.29199 0.0644531 2.88528V23.3951C0.0644531 24.9887 1.41964 26.2803 3.09157 26.2803H39.9736C41.6451 26.2803 43.0007 24.9884 43.0007 23.3951V2.88528C43.0007 1.29167 41.6455 0 39.9736 0L3.09157 0Z" fill="#4D4D4D"/>
<path fill-rule="evenodd" clip-rule="evenodd" d="M18.073 8.49219C18.5595 8.49219 18.9674 8.58577 19.464 8.81164V10.0051C18.9936 9.5926 18.5857 9.41997 18.0462 9.41997C16.9858 9.41997 16.1518 10.2076 16.1518 11.2061C16.1518 12.2591 16.96 12.9999 18.0988 12.9999C18.6114 12.9999 19.0118 12.8362 19.464 12.4304V13.6244C18.9498 13.8416 18.5331 13.9274 18.0462 13.9274C16.3244 13.9274 14.9866 12.7421 14.9866 11.2135C14.9866 9.7014 16.3601 8.49219 18.073 8.49219ZM12.7273 8.52508C13.3629 8.52508 13.9444 8.72021 14.4306 9.10178L13.839 9.79671C13.5445 9.50054 13.2659 9.37559 12.9272 9.37559C12.4399 9.37559 12.085 9.6245 12.085 9.95203C12.085 10.2329 12.2842 10.3815 12.9626 10.6068C14.2488 11.0287 14.63 11.4029 14.63 12.229C14.63 13.2358 13.8056 13.9366 12.6307 13.9366C11.7703 13.9366 11.1448 13.6326 10.6238 12.9467L11.3542 12.3156C11.6146 12.7673 12.049 13.0092 12.5883 13.0092C13.0927 13.0092 13.4662 12.697 13.4662 12.2757C13.4662 12.0572 13.353 11.87 13.1272 11.7376C13.0134 11.6749 12.7882 11.5814 12.3455 11.4414C11.2836 11.0984 10.9193 10.7318 10.9193 10.0153C10.9193 9.16425 11.7017 8.52508 12.7273 8.52508ZM25.648 8.61572H26.8831L28.429 12.1089L29.9948 8.61572H31.2206L28.7163 13.9497H28.1078L25.648 8.61572ZM3.77539 8.62369H5.43504C7.26875 8.62369 8.54704 9.69285 8.54704 11.2277C8.54704 11.993 8.15599 12.7329 7.49466 13.224C6.93825 13.6384 6.30422 13.8243 5.42634 13.8243H3.77539V8.62369ZM9.06728 8.62369H10.1979V13.8243H9.06728V8.62369ZM31.7318 8.62369H34.9383V9.50495H32.8617V10.6592H34.8619V11.54H32.8617V12.9438H34.9384V13.8243H31.7318L31.7318 8.62369ZM35.6873 8.62369H37.3637C38.6678 8.62369 39.415 9.1855 39.415 10.1592C39.415 10.9555 38.9464 11.4779 38.0947 11.6334L39.9194 13.8243H38.5289L36.964 11.7351H36.8166V13.8243H35.6873V8.62369ZM36.8166 9.44284V11.0178H37.147C37.869 11.0178 38.2517 10.7366 38.2517 10.2138C38.2517 9.70769 37.8689 9.44284 37.1648 9.44284H36.8166ZM4.90527 9.5049V12.9438H5.20869C5.93932 12.9438 6.40078 12.8183 6.75605 12.5305C7.14704 12.2181 7.38225 11.7193 7.38225 11.2202C7.38225 10.7219 7.14704 10.2379 6.75605 9.92549C6.38256 9.62229 5.93932 9.5049 5.20869 9.5049H4.90527Z" fill="white"/>
<path fill-rule="evenodd" clip-rule="evenodd" d="M22.9157 8.4566C24.6189 8.4566 25.9995 9.6935 25.9995 11.2215V11.2232C25.9995 12.7513 24.6189 13.9898 22.9158 13.9898C21.2126 13.9898 19.8319 12.7512 19.8319 11.2232V11.2215C19.8319 9.69345 21.2126 8.45654 22.9158 8.45654L22.9157 8.4566ZM42.9994 15.1263C41.5654 16.0879 30.8297 22.9601 12.2422 26.2795H39.9724C41.6439 26.2795 42.9995 24.9875 42.9995 23.3942V15.1261L42.9994 15.1263Z" fill="#F47216"/>
</g>
<defs>
<clipPath id="clip0_6026_6035">
<rect width="42.9362" height="26.2279" fill="white" transform="translate(0.0644531)"/>
</clipPath>
</defs>
</svg>
