<svg width="44" height="27" viewBox="0 0 44 27" fill="none" xmlns="http://www.w3.org/2000/svg">
<g clip-path="url(#clip0_6026_6040)">
<path d="M3.01045 0.225586H41.543C42.7591 0.225586 43.7448 1.18459 43.7448 2.36753V24.8579C43.7448 26.0409 42.7591 26.9999 41.543 26.9999H3.01045C1.79442 26.9999 0.808594 26.0409 0.808594 24.8579V2.36753C0.808594 1.18459 1.79442 0.225586 3.01045 0.225586Z" fill="#16366F"/>
<path d="M25.5259 13.6125C25.5259 18.9214 21.1018 23.2244 15.6445 23.2244C10.1872 23.2244 5.76367 18.9212 5.76367 13.6125C5.76367 8.30403 10.1873 4.00049 15.6445 4.00049C21.1016 4.00049 25.5259 8.30419 25.5259 13.6125Z" fill="#D9222A"/>
<path d="M28.9088 4.00049C26.3558 4.00049 24.0294 4.94273 22.2757 6.48868C21.9185 6.80403 21.585 7.14395 21.278 7.50589H23.2743C23.5477 7.82916 23.7993 8.16925 24.0276 8.52401H20.5248C20.3141 8.85178 20.124 9.1917 19.9555 9.54186H24.5966C24.7559 9.87306 24.8956 10.2128 25.015 10.5595H19.5372C19.4221 10.8934 19.3262 11.2332 19.25 11.5774H25.3018C25.4498 12.2462 25.5244 12.9285 25.5242 13.6127C25.5242 14.6801 25.3451 15.7071 25.0148 16.666H19.5371C19.6562 17.013 19.7958 17.3528 19.9551 17.684H24.5965C24.4278 18.0342 24.2376 18.3742 24.0269 18.7021H20.5246C20.7533 19.0571 21.0052 19.3971 21.2779 19.7193H23.2738C22.9672 20.0819 22.6336 20.4222 22.2758 20.7374C24.0296 22.2832 26.3557 23.2249 28.9089 23.2249C34.3661 23.2249 38.7903 18.9216 38.7903 13.6129C38.7903 8.30467 34.3662 4.00097 28.9089 4.00097" fill="#EE9F2D"/>
<path d="M37.4749 18.9708C37.4749 18.7994 37.6175 18.6602 37.7939 18.6602C37.9703 18.6602 38.113 18.7994 38.113 18.9708C38.113 19.1421 37.9703 19.2813 37.7939 19.2813C37.6176 19.2813 37.4748 19.1422 37.4749 18.9708ZM37.7939 19.2069C37.9279 19.2068 38.0365 19.1011 38.0366 18.9708C38.0366 18.8405 37.928 18.735 37.7941 18.735H37.7939C37.6602 18.7348 37.5517 18.8401 37.5515 18.9702V18.9709C37.5513 19.1011 37.6598 19.2068 37.7936 19.2069C37.7937 19.2069 37.7938 19.2069 37.7939 19.2069ZM37.7508 19.1073H37.6854V18.8345H37.8037C37.8285 18.8345 37.8537 18.8345 37.8755 18.8481C37.8983 18.863 37.9111 18.8893 37.9111 18.9165C37.9111 18.947 37.8925 18.9756 37.8625 18.9868L37.9141 19.1073H37.8417L37.7987 18.9993H37.7509L37.7508 19.1073ZM37.7508 18.9525H37.787C37.8006 18.9525 37.8148 18.9536 37.8269 18.9471C37.8377 18.9404 37.8432 18.9279 37.8432 18.9159C37.8432 18.9054 37.8366 18.8934 37.8274 18.8882C37.816 18.8812 37.7979 18.8828 37.7857 18.8828H37.7508V18.9525ZM13.3377 14.6652C13.2251 14.6525 13.1756 14.6491 13.0983 14.6491C12.4903 14.6491 12.1824 14.852 12.1824 15.2525C12.1824 15.4994 12.3327 15.6566 12.5671 15.6566C13.004 15.6566 13.3189 15.2518 13.3377 14.6652ZM14.1178 16.4321H13.229L13.2494 16.0211C12.9783 16.346 12.6166 16.5003 12.1251 16.5003C11.5437 16.5003 11.145 16.0586 11.145 15.4171C11.145 14.4519 11.8384 13.8888 13.0286 13.8888C13.1501 13.8888 13.3061 13.8995 13.4657 13.9193C13.499 13.7886 13.5077 13.7326 13.5077 13.6623C13.5077 13.3995 13.3208 13.3015 12.8196 13.3015C12.2949 13.2957 11.862 13.4231 11.6843 13.48C11.6955 13.4141 11.8329 12.588 11.8329 12.588C12.3675 12.4356 12.7201 12.3782 13.1169 12.3782C14.038 12.3782 14.5258 12.7805 14.5249 13.5409C14.5267 13.7446 14.4921 13.996 14.438 14.3265C14.3448 14.9011 14.1451 16.132 14.1178 16.4321ZM10.6962 16.4321H9.62345L10.2379 12.6839L8.8659 16.4321H8.13488L8.0446 12.7053L7.39869 16.4321H6.39453L7.23333 11.5563H8.77573L8.86931 14.2855L9.81016 11.5563H11.5258L10.6962 16.4321ZM30.2366 14.6652C30.1245 14.6525 30.0746 14.6491 29.9976 14.6491C29.3898 14.6491 29.0819 14.852 29.0819 15.2525C29.0819 15.4994 29.232 15.6566 29.4663 15.6566C29.9033 15.6566 30.2185 15.2518 30.2366 14.6652ZM31.0173 16.4321H30.1286L30.1487 16.0211C29.8776 16.346 29.5156 16.5003 29.0246 16.5003C28.443 16.5003 28.0448 16.0586 28.0448 15.4171C28.0448 14.4519 28.7377 13.8888 29.928 13.8888C30.0496 13.8888 30.2053 13.8995 30.3648 13.9193C30.398 13.7886 30.4068 13.7326 30.4068 13.6623C30.4068 13.3995 30.2201 13.3015 29.7189 13.3015C29.1942 13.2957 28.7618 13.4231 28.5833 13.48C28.5946 13.4141 28.7324 12.588 28.7324 12.588C29.2671 12.4356 29.6194 12.3782 30.0157 12.3782C30.9372 12.3782 31.4251 12.7805 31.4242 13.5409C31.426 13.7446 31.3913 13.996 31.3372 14.3265C31.2446 14.9011 31.0444 16.132 31.0173 16.4321ZM18.8856 16.3719C18.592 16.4618 18.3631 16.5003 18.115 16.5003C17.5665 16.5003 17.2673 16.1938 17.2673 15.6293C17.2594 15.4542 17.3461 14.9932 17.4142 14.5724C17.4762 14.202 17.8794 11.8666 17.8794 11.8666H18.9457L18.8212 12.4668H19.4652L19.3197 13.4197H18.6734C18.5495 14.1739 18.3731 15.1132 18.3711 15.2377C18.3711 15.4421 18.4832 15.5313 18.7383 15.5313C18.8605 15.5313 18.9552 15.5192 19.0275 15.4938L18.8856 16.3719ZM22.1549 16.3398C21.7886 16.4486 21.4351 16.5013 21.0606 16.5004C19.867 16.4993 19.2448 15.8928 19.2448 14.7316C19.2448 13.3761 20.0364 12.3783 21.1109 12.3783C21.99 12.3783 22.5514 12.937 22.5514 13.8132C22.5514 14.1039 22.5129 14.3877 22.42 14.7884H20.2966C20.2248 15.3636 20.6032 15.6032 21.2234 15.6032C21.6052 15.6032 21.9494 15.5267 22.3322 15.3535L22.1549 16.3398ZM21.5556 13.989C21.5615 13.9063 21.6687 13.2812 21.0595 13.2812C20.7198 13.2812 20.4769 13.5331 20.378 13.989H21.5556ZM14.7618 13.7203C14.7618 14.2219 15.0117 14.5677 15.5787 14.8275C16.0131 15.0261 16.0803 15.085 16.0803 15.265C16.0803 15.5122 15.8888 15.6238 15.4643 15.6238C15.1443 15.6238 14.8466 15.5752 14.5033 15.4674C14.5033 15.4674 14.3622 16.3413 14.3557 16.3831C14.5996 16.4349 14.817 16.4828 15.4721 16.5004C16.6039 16.5004 17.1267 16.0812 17.1267 15.1751C17.1267 14.6302 16.9079 14.3105 16.3705 14.0702C15.9207 13.8694 15.8691 13.8245 15.8691 13.6393C15.8691 13.4249 16.0473 13.3156 16.3941 13.3156C16.6047 13.3156 16.8923 13.3374 17.1648 13.3752L17.3175 12.4555C17.0397 12.4127 16.6186 12.3783 16.3735 12.3783C15.1735 12.3783 14.7581 12.988 14.7618 13.7203ZM27.3723 12.4825C27.6703 12.4825 27.9481 12.5585 28.3309 12.7459L28.5063 11.6877C28.3492 11.6277 27.796 11.2754 27.3274 11.2754C26.6095 11.2754 26.0027 11.6219 25.5759 12.1937C24.9533 11.9932 24.6974 12.3986 24.3836 12.8024L24.105 12.8656C24.126 12.7326 24.1451 12.6005 24.1387 12.4668H23.1536C23.019 13.694 22.7804 14.937 22.5937 16.1657L22.545 16.4322H23.6182C23.7974 15.3 23.8956 14.5751 23.9552 14.0845L24.3593 13.8658C24.4197 13.6473 24.6086 13.5735 24.9877 13.5824C24.9368 13.8506 24.9113 14.1227 24.9116 14.3955C24.9116 15.6927 25.6311 16.5004 26.7859 16.5004C27.0834 16.5004 27.3387 16.4623 27.7339 16.3581L27.9228 15.2464C27.5672 15.4167 27.2754 15.4968 27.0111 15.4968C26.3876 15.4968 26.0102 15.0491 26.0102 14.3089C26.0102 13.2353 26.5714 12.4825 27.3723 12.4825Z" fill="#02111B"/>
<path d="M11.0028 16.1423H9.92992L10.5448 12.3945L9.17276 16.1423H8.44163L8.35124 12.4159L7.70538 16.1423H6.70117L7.53997 11.2671H9.08237L9.12575 14.2852L10.1663 11.2671H11.8324L11.0028 16.1423Z" fill="white"/>
<path d="M36.4517 11.5562L36.214 12.9649C35.9206 12.5894 35.6055 12.3177 35.1895 12.3177C34.6481 12.3177 34.1555 12.7168 33.833 13.3043C33.384 13.2137 32.9194 13.06 32.9194 13.06L32.9192 13.0635C32.9554 12.7351 32.9698 12.5348 32.9666 12.4667H31.9813C31.8472 13.6939 31.6086 14.9369 31.4222 16.1656L31.373 16.432H32.446C32.5909 15.5165 32.702 14.7563 32.7836 14.1535C33.1502 13.8313 33.3336 13.5501 33.704 13.5689C33.5401 13.9548 33.444 14.3991 33.444 14.855C33.444 15.8463 33.9596 16.5002 34.7394 16.5002C35.1325 16.5002 35.4341 16.3684 35.7284 16.0627L35.6782 16.4314H36.6928L37.5098 11.5562H36.4517ZM35.1103 15.5156C34.7451 15.5156 34.5607 15.2528 34.5607 14.734C34.5607 13.9547 34.9059 13.402 35.3926 13.402C35.7611 13.402 35.9607 13.6753 35.9607 14.1789C35.9607 14.965 35.6101 15.5156 35.1103 15.5156Z" fill="#02111B"/>
<path d="M13.6453 14.376C13.5329 14.3634 13.4832 14.36 13.4061 14.36C12.7981 14.36 12.4905 14.5628 12.4905 14.9633C12.4905 15.2098 12.6408 15.3674 12.8747 15.3674C13.312 15.3674 13.627 14.9627 13.6453 14.376ZM14.4259 16.1423H13.5371L13.5573 15.7319C13.2864 16.0561 12.9242 16.2112 12.4332 16.2112C11.8515 16.2112 11.4531 15.7694 11.4531 15.128C11.4531 14.1624 12.1462 13.5996 13.3366 13.5996C13.4582 13.5996 13.6141 13.6103 13.7736 13.6302C13.8068 13.4994 13.8155 13.4434 13.8155 13.3727C13.8155 13.1099 13.6288 13.0123 13.1276 13.0123C12.6027 13.0065 12.1701 13.134 11.9921 13.1902C12.0033 13.1246 12.1407 12.2993 12.1407 12.2993C12.6752 12.1462 13.0281 12.0888 13.4244 12.0888C14.3458 12.0888 14.8339 12.4914 14.833 13.2511C14.8346 13.4556 14.7997 13.7069 14.7458 14.0369C14.6529 14.6112 14.4529 15.8428 14.4259 16.1423ZM28.8139 11.3983L28.6382 12.4568C28.2556 12.2696 27.9776 12.1933 27.68 12.1933C26.879 12.1933 26.3176 12.9461 26.3176 14.0197C26.3176 14.7598 26.695 15.2074 27.3185 15.2074C27.5827 15.2074 27.8743 15.1275 28.2297 14.957L28.0415 16.0681C27.646 16.173 27.3911 16.2112 27.0933 16.2112C25.9386 16.2112 25.2189 15.4035 25.2189 14.1063C25.2189 12.3632 26.213 11.145 27.6348 11.145C28.1031 11.1451 28.6566 11.3383 28.8139 11.3983ZM30.5447 14.376C30.4323 14.3634 30.3828 14.36 30.3054 14.36C29.6976 14.36 29.3898 14.5628 29.3898 14.9633C29.3898 15.2098 29.54 15.3674 29.7742 15.3674C30.2111 15.3674 30.5263 14.9627 30.5447 14.376ZM31.3252 16.1423H30.4362L30.4565 15.7319C30.1855 16.0561 29.8235 16.2112 29.3325 16.2112C28.751 16.2112 28.3524 15.7694 28.3524 15.128C28.3524 14.1624 29.0458 13.5996 30.2357 13.5996C30.3575 13.5996 30.5132 13.6103 30.6728 13.6302C30.7059 13.4994 30.7148 13.4434 30.7148 13.3727C30.7148 13.1099 30.5281 13.0123 30.027 13.0123C29.5022 13.0065 29.0694 13.134 28.8914 13.1902C28.9026 13.1246 29.0402 12.2993 29.0402 12.2993C29.5747 12.1462 29.9274 12.0888 30.3237 12.0888C31.2453 12.0888 31.7331 12.4914 31.732 13.2511C31.7338 13.4556 31.6992 13.7069 31.645 14.0369C31.5525 14.6112 31.352 15.8428 31.3252 16.1423ZM19.1935 16.0822C18.8996 16.1722 18.6708 16.2112 18.4228 16.2112C17.8744 16.2112 17.5751 15.9046 17.5751 15.3402C17.5675 15.1645 17.6542 14.704 17.7224 14.2832C17.784 13.9124 18.1873 11.5773 18.1873 11.5773H19.2534L19.129 12.1777H19.6763L19.5306 13.1302H18.9816C18.8577 13.8847 18.6808 14.8233 18.679 14.9481C18.679 15.1532 18.7914 15.2417 19.0462 15.2417C19.1684 15.2417 19.263 15.2301 19.3354 15.2046L19.1935 16.0822ZM22.4628 16.0506C22.0967 16.1594 21.7428 16.2119 21.3685 16.2112C20.1749 16.2101 19.5527 15.6036 19.5527 14.4423C19.5527 13.0864 20.3442 12.0889 21.4187 12.0889C22.2978 12.0889 22.8593 12.6473 22.8593 13.524C22.8593 13.8149 22.8208 14.0987 22.7282 14.4992H20.6048C20.5329 15.0744 20.9113 15.3143 21.5316 15.3143C21.9131 15.3143 22.2575 15.2375 22.6401 15.0639L22.4628 16.0506ZM21.8632 13.6991C21.8697 13.6168 21.9766 12.9914 21.3671 12.9914C21.0277 12.9914 20.7848 13.244 20.6859 13.6991H21.8632ZM15.0694 13.4312C15.0694 13.9327 15.3194 14.2781 15.8864 14.5383C16.3208 14.7368 16.388 14.796 16.388 14.9758C16.388 15.223 16.1963 15.3346 15.7722 15.3346C15.452 15.3346 15.1543 15.2859 14.8107 15.1782C14.8107 15.1782 14.6701 16.0521 14.6637 16.0939C14.907 16.1457 15.1247 16.1929 15.7797 16.2112C16.9119 16.2112 17.4344 15.792 17.4344 14.8861C17.4344 14.341 17.2158 14.0213 16.6781 13.781C16.2286 13.5798 16.1766 13.5356 16.1766 13.3502C16.1766 13.136 16.3552 13.0258 16.7017 13.0258C16.9121 13.0258 17.1997 13.0482 17.4726 13.086L17.6252 12.166C17.3477 12.1232 16.9266 12.0889 16.6813 12.0889C15.4811 12.0889 15.066 12.6982 15.0694 13.4312ZM37.0027 16.1423H35.9878L36.0382 15.7732C35.7439 16.0793 35.4424 16.2112 35.0492 16.2112C34.2693 16.2112 33.754 15.5572 33.754 14.5659C33.754 13.247 34.5533 12.1352 35.4995 12.1352C35.9155 12.1352 36.2305 12.3005 36.5235 12.6758L36.7616 11.2671H37.8197L37.0027 16.1423ZM35.4204 15.2261C35.9199 15.2261 36.2708 14.6755 36.2708 13.8899C36.2708 13.3863 36.071 13.113 35.7025 13.113C35.216 13.113 34.8704 13.6654 34.8704 14.445C34.8703 14.9637 35.0552 15.2261 35.4204 15.2261ZM32.2913 12.1777C32.1571 13.4048 31.9185 14.6478 31.732 15.8759L31.6829 16.1423H32.7558C33.1396 13.7179 33.2324 13.2444 33.8341 13.3037C33.93 12.8075 34.1083 12.3729 34.2414 12.1536C33.792 12.0625 33.5411 12.3095 33.2127 12.7787C33.2386 12.5759 33.2861 12.3789 33.2767 12.1777H32.2913ZM23.4608 12.1777C23.3261 13.4048 23.0876 14.6478 22.9011 15.8759L22.8523 16.1423H23.9257C24.3089 13.7179 24.4016 13.2444 25.0029 13.3037C25.0993 12.8075 25.2777 12.3729 25.4103 12.1536C24.9614 12.0625 24.7103 12.3095 24.3821 12.7787C24.408 12.5759 24.455 12.3789 24.4461 12.1777H23.4608ZM37.474 15.8319C37.474 15.6598 37.6169 15.5213 37.793 15.5213C37.969 15.5212 38.1118 15.6599 38.112 15.8311V15.8319C38.112 16.0033 37.9692 16.1422 37.793 16.1423C37.6169 16.1422 37.4741 16.0033 37.474 15.8319ZM37.793 16.0677C37.9269 16.0678 38.0354 15.9623 38.0354 15.8321V15.832C38.0356 15.7017 37.9271 15.596 37.7932 15.5959H37.793C37.659 15.596 37.5504 15.7016 37.5503 15.832C37.5505 15.9622 37.6591 16.0677 37.793 16.0677ZM37.7499 15.9676H37.6845V15.6954H37.803C37.8276 15.6954 37.853 15.6958 37.8744 15.709C37.8973 15.7241 37.9104 15.75 37.9104 15.7772C37.9104 15.808 37.8918 15.8368 37.8615 15.8477L37.9133 15.9674H37.8407L37.7978 15.8599H37.7499V15.9674V15.9676ZM37.7499 15.8134H37.7859C37.7993 15.8134 37.8141 15.8144 37.826 15.808C37.8367 15.8013 37.8422 15.7887 37.8422 15.7766C37.8417 15.7654 37.8359 15.755 37.8264 15.7485C37.8152 15.7423 37.7966 15.744 37.7844 15.744H37.7498L37.7499 15.8134Z" fill="white"/>
</g>
<defs>
<clipPath id="clip0_6026_6040">
<rect width="42.9362" height="26.7743" fill="white" transform="translate(0.808594 0.225586)"/>
</clipPath>
</defs>
</svg>
