<svg width="45" height="27" viewBox="0 0 45 27" fill="none" xmlns="http://www.w3.org/2000/svg">
<g clip-path="url(#clip0_6026_6048)">
<path d="M2.8781 0.225586H41.9313C43.1638 0.225586 44.1629 1.18459 44.1629 2.36753V24.8579C44.1629 26.0409 43.1638 26.9999 41.9313 26.9999H2.8781C1.64563 26.9999 0.646484 26.0409 0.646484 24.8579V2.36753C0.646484 1.18459 1.64563 0.225586 2.8781 0.225586Z" fill="#0E4595"/>
<path d="M17.004 18.8996L18.8652 8.41694H21.8422L19.9796 18.8996H17.004ZM30.7345 8.64291C30.1448 8.43054 29.2205 8.20264 28.0665 8.20264C25.125 8.20264 23.0529 9.62435 23.0353 11.662C23.0187 13.1684 24.5146 14.0086 25.6437 14.5101C26.8025 15.0239 27.1919 15.3515 27.1865 15.8104C27.1792 16.513 26.2611 16.834 25.4055 16.834C24.214 16.834 23.581 16.6752 22.6034 16.2838L22.2197 16.1172L21.8019 18.4639C22.4972 18.7565 23.783 19.01 25.118 19.0231C28.2473 19.0231 30.2786 17.6177 30.3018 15.4417C30.3129 14.2492 29.5198 13.3417 27.8023 12.5935C26.7619 12.1086 26.1246 11.785 26.1314 11.294C26.1314 10.8583 26.6708 10.3923 27.8362 10.3923C28.8096 10.3778 29.5149 10.5816 30.0643 10.7939L30.331 10.9149L30.7345 8.64291ZM38.3951 8.41678H36.0947C35.3821 8.41678 34.8488 8.6035 34.5359 9.28609L30.1149 18.8927H33.2408C33.2408 18.8927 33.7519 17.601 33.8675 17.3174C34.2092 17.3174 37.2459 17.3219 37.6801 17.3219C37.7691 17.6889 38.0422 18.8927 38.0422 18.8927H40.8046L38.3951 8.41646V8.41678ZM34.7454 15.1859C34.9915 14.5819 35.9315 12.2555 35.9315 12.2555C35.9139 12.2835 36.1758 11.6486 36.3262 11.255L36.5273 12.1589C36.5273 12.1589 37.0974 14.6611 37.2165 15.1859H34.7454ZM14.4768 8.41678L11.5623 15.5655L11.2517 14.1127C10.7091 12.4381 9.01869 10.6238 7.12891 9.71544L9.79379 18.883L12.9435 18.8795L17.6301 8.41667H14.4768" fill="white"/>
<path d="M8.84411 8.41623H4.04385L4.00586 8.63433C7.74035 9.50204 10.2114 11.5989 11.2374 14.1182L10.1936 9.30101C10.0134 8.63728 9.49077 8.4392 8.84422 8.41602" fill="#F2AE14"/>
</g>
<defs>
<clipPath id="clip0_6026_6048">
<rect width="43.5165" height="26.7743" fill="white" transform="translate(0.646484 0.225586)"/>
</clipPath>
</defs>
</svg>
